<svg xmlns="http://www.w3.org/2000/svg" viewBox="0 0 800 480" width="800" height="480" role="img" aria-label="ticker STOCK page, two columns: logo, name, the big price and the range bars on the left; the chart, the range chips and three headlines on the right">
  <!-- 800x480 native (1:1), drawn from the firmware's LAYOUTS[0] constants (2026-09-17). Left: logo 128px at (20,52), symbol at 168, the price in the 50px digits at y=196, change at 264, day and 52-week bars at 316 and 368. Right: chart 388x200 at (400,52) with the previous close dashed, range chips at y=262, headlines from y=312 every 38. Swipe up for the whole headline list. -->
  <rect width="800" height="480" fill="#000000"/>
<polyline points="22,14 14,22 22,30" fill="none" stroke="#a6a6a6" stroke-width="2" stroke-linejoin="round"/><text x="36" y="29" font-family="Helvetica Neue, Helvetica, Arial, sans-serif" font-size="19" fill="#ffffff" text-anchor="start" font-weight="bold">AAPL</text><text x="94" y="25" font-family="Helvetica Neue, Helvetica, Arial, sans-serif" font-size="14" fill="#a6a6a6" text-anchor="start" >Apple Inc.</text><g fill="none" stroke="#a6a6a6" stroke-width="2"><circle cx="577" cy="17" r="6.5"/><line x1="582" y1="22" x2="590" y2="30"/></g><g fill="#a6a6a6"><rect x="610" y="9" width="9" height="9" rx="2"/><rect x="622" y="9" width="9" height="9" rx="2"/><rect x="610" y="21" width="9" height="9" rx="2"/><rect x="622" y="21" width="9" height="9" rx="2"/></g><g fill="#a6a6a6"><rect x="649" y="10" width="16" height="3"/><rect x="649" y="17" width="22" height="3"/><rect x="649" y="24" width="16" height="3"/></g><g stroke="#a6a6a6" stroke-width="1"><line x1="689" y1="12" x2="711" y2="12"/><line x1="689" y1="20" x2="711" y2="20"/><line x1="689" y1="28" x2="711" y2="28"/></g><g fill="#a6a6a6"><circle cx="693" cy="12" r="3"/><circle cx="705" cy="20" r="3"/><circle cx="699" cy="28" r="3"/></g><text x="788" y="25" font-family="Helvetica Neue, Helvetica, Arial, sans-serif" font-size="14" fill="#a6a6a6" text-anchor="end" >7:52 AM</text><line x1="0" y1="39.5" x2="800" y2="39.5" stroke="#202020"/><rect x="20" y="52" width="128" height="128" rx="20" fill="#202020"/><text x="84" y="125" font-family="Helvetica Neue, Helvetica, Arial, sans-serif" font-size="25" fill="#a6a6a6" text-anchor="middle" >AAPL</text><text x="168" y="76" font-family="Helvetica Neue, Helvetica, Arial, sans-serif" font-size="25" fill="#ffffff" text-anchor="start" font-weight="bold">AAPL</text><text x="168" y="104" font-family="Helvetica Neue, Helvetica, Arial, sans-serif" font-size="14" fill="#a6a6a6" text-anchor="start" >Apple Inc.</text><text x="168" y="128" font-family="Helvetica Neue, Helvetica, Arial, sans-serif" font-size="14" fill="#ffff00" text-anchor="start" >CLOSED til 09:30</text><text x="20" y="244" font-family="Helvetica Neue, Helvetica, Arial, sans-serif" font-size="50" fill="#00ff00" text-anchor="start" font-weight="bold">245.12</text><text x="200" y="232" font-family="Helvetica Neue, Helvetica, Arial, sans-serif" font-size="14" fill="#666666" text-anchor="start" >USD</text><g stroke="#a6a6a6" stroke-width="1"><line x1="776" y1="57.5" x2="783" y2="57.5"/><line x1="782.5" y1="57" x2="782.5" y2="64"/><line x1="766" y1="73.5" x2="773" y2="73.5"/><line x1="766.5" y1="67" x2="766.5" y2="74"/></g><!-- the expand mark --><text x="20" y="306" font-family="Helvetica Neue, Helvetica, Arial, sans-serif" font-size="14" fill="#00ff00" text-anchor="start" >after hours 245.17   +0.05 (+0.02%)</text><text x="20" y="288" font-family="Helvetica Neue, Helvetica, Arial, sans-serif" font-size="19" fill="#00ff00" text-anchor="start" >+2.91</text><text x="200" y="288" font-family="Helvetica Neue, Helvetica, Arial, sans-serif" font-size="19" fill="#00ff00" text-anchor="start" >+1.2%</text><text x="20" y="330" font-family="Helvetica Neue, Helvetica, Arial, sans-serif" font-size="14" fill="#666666" text-anchor="start" >DAY</text><text x="360" y="330" font-family="Helvetica Neue, Helvetica, Arial, sans-serif" font-size="14" fill="#666666" text-anchor="end" >241.80  –  246.40</text><rect x="20" y="338" width="340" height="8" rx="4" fill="#202020"/><rect x="267" y="336" width="6" height="12" rx="3" fill="#ffffff"/><text x="20" y="382" font-family="Helvetica Neue, Helvetica, Arial, sans-serif" font-size="14" fill="#666666" text-anchor="start" >52W</text><text x="360" y="382" font-family="Helvetica Neue, Helvetica, Arial, sans-serif" font-size="14" fill="#666666" text-anchor="end" >169.21  –  260.10</text><rect x="20" y="390" width="340" height="8" rx="4" fill="#202020"/><rect x="297" y="388" width="6" height="12" rx="3" fill="#ffffff"/><line x1="400" y1="186" x2="788" y2="186" stroke="#666666" stroke-dasharray="4 4"/><polyline fill="none" stroke="#00ff00" stroke-width="2" points="400,154 410,154 420,151 430,152 440,153 450,144 459,134 469,139 479,134 489,128 499,136 509,135 519,140 529,138 539,140 548,132 558,134 568,140 578,139 588,142 598,144 608,136 618,139 628,140 638,135 648,126 657,131 667,130 677,133 687,139 697,142 707,148 717,145 727,150 737,148 746,154 756,160 766,152 776,144 786,138"/><rect x="400" y="262" width="72" height="40" rx="8" fill="#666666"/><text x="436" y="288" font-family="Helvetica Neue, Helvetica, Arial, sans-serif" font-size="19" fill="#ffffff" text-anchor="middle" >1D</text><rect x="479" y="262" width="72" height="40" rx="8" fill="#000000"/><text x="515" y="288" font-family="Helvetica Neue, Helvetica, Arial, sans-serif" font-size="19" fill="#a6a6a6" text-anchor="middle" >5D</text><rect x="558" y="262" width="72" height="40" rx="8" fill="#000000"/><text x="594" y="288" font-family="Helvetica Neue, Helvetica, Arial, sans-serif" font-size="19" fill="#a6a6a6" text-anchor="middle" >1M</text><rect x="637" y="262" width="72" height="40" rx="8" fill="#000000"/><text x="673" y="288" font-family="Helvetica Neue, Helvetica, Arial, sans-serif" font-size="19" fill="#a6a6a6" text-anchor="middle" >6M</text><rect x="716" y="262" width="72" height="40" rx="8" fill="#000000"/><text x="752" y="288" font-family="Helvetica Neue, Helvetica, Arial, sans-serif" font-size="19" fill="#a6a6a6" text-anchor="middle" >1Y</text><text x="400" y="328" font-family="Helvetica Neue, Helvetica, Arial, sans-serif" font-size="14" fill="#a6a6a6" text-anchor="start" >Apple to expand chip production in Arizona</text><text x="400" y="366" font-family="Helvetica Neue, Helvetica, Arial, sans-serif" font-size="14" fill="#a6a6a6" text-anchor="start" >iPhone 18 demand outpaces supply, analysts say</text><text x="400" y="404" font-family="Helvetica Neue, Helvetica, Arial, sans-serif" font-size="14" fill="#a6a6a6" text-anchor="start" >Services revenue hits a record quarter</text><text x="400" y="466" font-family="Helvetica Neue, Helvetica, Arial, sans-serif" font-size="14" fill="#666666" text-anchor="middle" >&lt; next        ^ all headlines        v list        prev &gt;</text>
</svg>
